<?xml version="1.0" standalone="no"?>
<!DOCTYPE svg PUBLIC "-//W3C//DTD SVG 20010904//EN"
 "http://www.w3.org/TR/2001/REC-SVG-20010904/DTD/svg10.dtd">
<svg version="1.0" xmlns="http://www.w3.org/2000/svg"
 width="1950.000000pt" height="490.000000pt" viewBox="0 0 1950.000000 490.000000"
 preserveAspectRatio="xMidYMid meet">

<g transform="translate(0.000000,490.000000) scale(0.100000,-0.100000)"
fill="#d7c6b2" stroke="none">
<path d="M2790 4490 c-196 -16 -448 -84 -607 -163 -26 -14 -59 -28 -73 -32
-14 -4 -69 -34 -123 -66 -54 -33 -100 -59 -102 -59 -9 0 -158 -106 -208 -148
-202 -169 -299 -279 -439 -495 -42 -66 -138 -244 -138 -257 0 -7 -6 -24 -14
-38 -28 -52 -56 -131 -56 -156 0 -14 -4 -27 -9 -31 -19 -11 -59 -178 -82 -340
-17 -115 -13 -478 6 -591 24 -140 74 -322 110 -401 8 -17 15 -37 15 -45 0 -7
6 -22 13 -33 8 -11 19 -35 26 -54 12 -37 142 -263 199 -346 88 -130 275 -331
392 -423 94 -74 205 -152 214 -152 5 0 17 -6 25 -14 42 -37 334 -170 397 -182
21 -3 44 -10 49 -14 14 -11 102 -34 230 -62 100 -21 134 -23 380 -23 299 0
349 7 635 92 111 33 430 189 472 231 7 7 17 12 24 12 12 0 20 6 189 139 94 74
208 185 283 276 31 36 133 182 157 223 5 9 28 46 50 82 44 71 115 225 139 305
9 28 29 91 46 141 16 50 34 122 40 160 5 38 14 96 20 129 13 76 13 460 0 540
-5 33 -14 89 -19 126 -6 36 -17 82 -26 102 -8 20 -15 47 -15 59 0 13 -7 36
-15 52 -8 15 -15 34 -15 42 0 7 -6 28 -14 46 -52 123 -89 206 -100 228 -35 67
-150 257 -165 275 -10 11 -39 50 -66 88 -56 80 -233 258 -336 340 -145 114
-320 217 -499 294 -19 9 -48 22 -63 29 -16 8 -35 14 -43 14 -7 0 -55 13 -106
29 -215 68 -496 94 -778 71z m62 -890 c5 -463 4 -648 -4 -658 -13 -15 -18 -11
-51 48 -13 25 -48 83 -76 130 -28 47 -58 99 -67 115 -8 17 -30 55 -49 85 -19
30 -50 84 -69 120 -19 36 -46 82 -60 103 -14 21 -26 40 -26 42 0 2 -44 79 -98
172 -180 309 -183 315 -139 332 141 57 214 84 280 101 97 27 282 59 322 57
l30 -2 7 -645z m489 620 c69 -11 164 -34 210 -51 46 -17 96 -33 111 -36 15 -3
33 -11 39 -19 6 -8 20 -14 29 -14 60 0 64 -32 15 -113 -19 -32 -35 -61 -35
-65 0 -4 -16 -31 -35 -61 -19 -29 -35 -55 -35 -58 0 -4 -13 -27 -28 -52 -16
-25 -82 -140 -147 -256 -65 -115 -129 -228 -142 -250 -56 -93 -97 -162 -110
-187 -8 -16 -19 -28 -24 -28 -5 0 -9 -8 -9 -18 0 -27 -23 -53 -38 -43 -19 11
-18 1232 1 1262 9 14 20 18 42 14 16 -2 87 -14 156 -25z m-1311 -370 c16 -9
47 -56 108 -170 13 -25 37 -64 53 -88 16 -24 29 -45 29 -48 0 -3 26 -49 58
-102 32 -54 64 -108 70 -122 7 -14 32 -58 57 -98 25 -41 45 -75 45 -77 0 -2
16 -27 35 -56 19 -30 35 -56 35 -60 0 -3 23 -46 52 -95 28 -49 61 -105 72
-125 115 -202 136 -243 129 -250 -5 -5 -174 -9 -375 -9 -415 -1 -402 -3 -483
77 -110 109 -138 150 -179 261 l-39 107 -1 195 -1 195 38 110 c43 127 103 216
206 308 71 63 65 61 91 47z m2017 -48 c115 -92 190 -207 230 -352 35 -128 17
-500 -26 -543 -6 -6 -11 -17 -11 -25 0 -62 -167 -276 -243 -312 -41 -19 -61
-20 -402 -18 -315 3 -360 5 -363 18 -1 9 20 54 47 100 28 47 61 105 74 130 42
80 133 238 144 252 10 12 42 68 148 258 23 41 52 93 64 115 13 22 35 60 49 85
14 25 31 52 37 60 7 8 25 40 40 70 25 48 54 99 102 178 20 32 54 27 110 -16z
m552 -479 c19 -37 39 -79 46 -93 22 -42 76 -182 95 -245 37 -123 86 -395 76
-421 -4 -12 -43 -14 -226 -14 -195 0 -221 2 -227 16 -3 9 -1 24 5 33 105 155
156 316 172 544 5 67 5 149 1 183 -13 108 4 107 58 -3z m-3157 -63 c-4 -87 17
-260 44 -364 17 -65 66 -181 88 -206 8 -8 17 -26 21 -40 4 -14 19 -39 32 -57
15 -20 20 -34 13 -38 -12 -7 -414 -14 -442 -7 -14 3 -18 15 -18 51 -1 65 29
246 50 311 28 87 70 202 84 235 35 79 59 131 67 145 5 8 14 25 21 38 6 12 19
21 27 20 13 -3 15 -17 13 -88z m186 -976 c2 -11 -6 -28 -18 -39 -11 -10 -20
-26 -20 -36 0 -10 -5 -21 -11 -24 -14 -9 -79 -152 -79 -174 0 -9 -4 -21 -9
-26 -9 -10 -34 -173 -46 -305 -3 -36 -1 -96 3 -135 11 -85 8 -99 -19 -82 -10
6 -19 15 -19 19 0 4 -24 58 -54 120 -51 108 -111 271 -134 368 -7 25 -19 95
-27 155 -9 61 -18 117 -20 125 -13 46 44 56 315 54 126 -1 135 -2 138 -20z
m1116 20 c27 -10 18 -34 -54 -157 -39 -66 -70 -121 -70 -124 0 -3 -20 -37 -45
-74 -25 -38 -50 -81 -55 -95 -6 -14 -30 -58 -53 -97 -24 -40 -47 -79 -50 -87
-4 -8 -18 -33 -32 -55 -13 -22 -36 -62 -51 -90 -15 -27 -42 -73 -60 -102 -18
-29 -45 -74 -59 -100 -13 -26 -36 -66 -50 -88 -14 -22 -29 -51 -35 -65 -5 -14
-15 -32 -20 -40 -6 -8 -18 -28 -28 -44 -31 -54 -60 -78 -85 -70 -64 20 -189
161 -237 268 -64 143 -73 194 -68 376 5 155 7 171 40 271 39 119 84 193 173
287 85 90 87 91 492 91 182 1 338 -2 347 -5z m1248 -13 c68 -30 238 -216 238
-261 0 -12 7 -34 15 -48 36 -66 48 -136 52 -319 4 -156 3 -185 -11 -204 -9
-13 -16 -34 -16 -46 0 -23 -27 -98 -60 -168 -34 -71 -201 -245 -235 -245 -8 0
-25 15 -38 33 -30 41 -107 171 -107 181 0 4 -18 34 -40 66 -22 33 -45 69 -50
82 -6 13 -21 41 -34 63 -13 22 -33 56 -43 75 -11 19 -37 64 -58 100 -20 36
-45 79 -55 95 -9 17 -36 60 -58 97 -23 37 -48 82 -57 100 -8 18 -23 45 -32 60
-25 36 -69 112 -106 178 -16 30 -43 74 -58 98 -29 43 -35 63 -22 75 3 4 169 7
369 7 334 0 366 -1 406 -19z m816 6 c8 -9 5 -49 -9 -137 -29 -194 -53 -286
-94 -377 -8 -17 -15 -35 -15 -39 0 -4 -23 -56 -52 -116 -37 -77 -57 -108 -69
-108 -24 0 -32 31 -24 90 17 126 -49 434 -115 535 -45 69 -81 145 -75 155 10
16 440 13 453 -3z m-1633 -398 c4 -11 20 -40 35 -63 26 -38 57 -92 144 -249
15 -29 41 -71 57 -95 16 -24 29 -46 29 -50 0 -4 20 -40 44 -79 25 -39 57 -94
73 -123 36 -68 56 -103 98 -170 19 -30 50 -84 69 -120 19 -36 46 -82 60 -104
25 -36 26 -40 12 -62 -9 -12 -30 -27 -48 -33 -18 -5 -78 -26 -133 -46 -112
-40 -144 -48 -300 -75 -146 -26 -163 -26 -169 3 -3 12 -7 307 -10 655 -6 621
-6 632 13 632 11 0 23 -9 26 -21z m-309 -33 c-3 -11 -6 -291 -6 -622 0 -492
-2 -604 -14 -619 -13 -18 -17 -18 -132 -1 -66 10 -150 26 -189 36 -105 28
-297 104 -309 123 -14 22 -10 29 210 405 27 46 62 107 78 135 15 29 37 68 48
87 10 19 34 60 53 90 19 30 41 69 49 85 8 17 30 55 48 86 18 31 55 94 82 141
40 68 54 84 69 80 13 -3 17 -11 13 -26z"/>
<path d="M9056 4070 l-99 -5 -55 -60 c-69 -75 -192 -220 -212 -248 -8 -12 -28
-35 -44 -52 -15 -16 -57 -64 -93 -107 -62 -74 -93 -95 -118 -80 -7 4 -110 122
-230 262 -119 140 -226 263 -237 273 -17 14 -40 17 -133 17 -62 0 -120 -3
-128 -6 -21 -8 -6 -49 31 -89 45 -49 181 -202 278 -315 229 -265 274 -322 274
-346 0 -17 -26 -54 -82 -118 -46 -50 -99 -111 -118 -135 -19 -24 -40 -49 -47
-56 -7 -7 -44 -50 -84 -96 -40 -46 -77 -88 -84 -94 -6 -5 -23 -26 -37 -45 -14
-19 -47 -57 -71 -84 -99 -108 -92 -122 65 -118 61 2 115 5 120 8 8 5 84 92
387 442 90 104 112 119 141 99 22 -15 165 -174 198 -220 13 -18 42 -52 66 -77
23 -25 57 -63 75 -85 18 -22 60 -68 92 -101 l59 -62 98 -4 c90 -4 152 4 152
21 0 4 -34 47 -76 97 -41 49 -99 117 -127 152 -29 34 -74 86 -101 115 -27 28
-73 82 -103 120 -30 37 -62 75 -72 85 -10 9 -39 43 -65 74 -50 63 -59 104 -28
136 9 10 33 38 52 63 19 24 61 75 95 113 91 104 183 208 209 236 12 14 43 50
68 81 24 30 53 65 64 76 59 63 74 83 76 104 4 30 -27 36 -156 29z"/>
<path d="M7265 4048 c-3 -13 -4 -349 -3 -748 l3 -725 75 -6 c48 -4 84 -2 100
5 l25 11 3 723 c1 487 -1 729 -8 743 -9 17 -22 19 -100 19 -85 0 -90 -1 -95
-22z"/>
<path d="M10108 4059 c-17 -9 -18 -55 -18 -738 0 -663 1 -730 16 -742 26 -22
159 -25 189 -5 l25 16 0 216 c0 129 4 223 10 235 10 18 23 19 173 19 118 0
168 4 181 13 13 10 18 29 20 78 3 63 -6 97 -28 111 -6 4 -84 8 -173 8 -150 0
-163 1 -173 19 -6 12 -10 118 -10 276 0 158 4 264 10 276 10 18 23 19 173 19
119 0 168 4 181 13 14 10 19 30 21 86 5 116 19 111 -307 111 -167 0 -280 -5
-290 -11z"/>
<path d="M12052 4058 c-9 -9 -12 -187 -12 -739 0 -621 2 -728 14 -739 21 -17
171 -19 188 -2 10 10 13 157 13 743 0 638 -2 731 -15 739 -22 14 -174 12 -188
-2z"/>
<path d="M13690 4060 c-13 -8 -15 -103 -18 -737 l-3 -728 22 -17 c19 -17 56
-18 439 -18 485 0 450 -8 450 103 0 112 17 107 -353 107 -230 0 -316 3 -325
12 -9 9 -12 69 -12 210 l0 198 26 11 c16 5 131 9 278 9 294 -1 276 -9 276 112
0 66 -3 79 -19 88 -12 6 -119 10 -278 10 -188 0 -262 3 -271 12 -9 9 -12 68
-12 204 0 162 3 195 16 208 13 14 57 16 329 16 313 0 314 0 329 22 21 30 21
136 0 166 l-15 22 -422 0 c-248 0 -428 -4 -437 -10z"/>
<path d="M15910 4044 c-6 -15 -10 -299 -10 -738 0 -584 2 -716 13 -725 21 -16
161 -18 181 -2 14 12 16 84 16 740 0 552 -3 730 -12 739 -7 7 -44 12 -95 12
-80 0 -84 -1 -93 -26z"/>
<path d="M16410 4051 c-7 -13 -10 -263 -10 -740 l0 -720 22 -15 c19 -14 78
-16 433 -16 334 0 415 3 430 14 15 11 19 28 21 85 2 115 16 111 -354 110 -258
0 -308 2 -320 15 -23 23 -18 395 5 414 13 9 86 12 285 12 310 0 288 -9 288
114 0 64 -3 77 -19 86 -12 6 -121 10 -284 10 -204 0 -267 3 -275 13 -7 8 -12
86 -13 207 -1 176 0 195 17 207 14 10 87 13 330 13 237 0 314 3 321 13 6 6 13
44 16 83 10 124 49 114 -453 114 -414 0 -430 -1 -440 -19z"/>
<path d="M6762 4044 c-22 -15 -22 -17 -22 -303 0 -315 -2 -326 -52 -293 -37
24 -219 162 -243 184 -11 10 -49 41 -85 68 -36 27 -134 102 -218 167 -207 159
-191 148 -210 136 -16 -9 -17 -69 -14 -719 2 -626 4 -710 18 -721 8 -6 46 -11
84 -11 120 1 111 -42 110 519 -1 507 0 520 42 498 19 -10 79 -54 138 -100 14
-10 48 -36 75 -57 28 -20 83 -64 124 -97 40 -33 90 -71 111 -85 20 -14 56 -40
78 -58 l42 -34 0 -279 0 -278 28 -14 c38 -20 157 -16 179 6 15 15 16 79 15
738 -1 525 -5 725 -13 735 -17 20 -157 19 -187 -2z"/>
<path d="M10917 4048 c-16 -12 -17 -59 -17 -738 0 -829 -11 -750 100 -750 91
0 110 15 110 84 0 60 8 70 60 80 198 36 209 34 223 -25 34 -139 38 -142 171
-137 55 2 100 8 107 15 13 13 5 39 -61 197 -45 108 -45 103 16 161 41 39 134
174 134 195 0 8 6 24 14 35 16 24 46 170 46 224 0 61 -28 192 -55 259 -48 117
-131 218 -240 288 -79 51 -96 59 -190 90 -69 23 -102 27 -240 31 -124 4 -164
2 -178 -9z m315 -213 c70 -11 183 -71 240 -127 165 -162 181 -396 40 -583 -68
-90 -195 -164 -311 -179 -96 -13 -91 -40 -91 450 l0 423 22 15 c12 9 31 14 42
11 12 -2 38 -7 58 -10z"/>
<path d="M12562 4048 c-17 -17 -17 -1459 0 -1476 18 -18 149 -16 176 4 18 12
22 25 22 68 0 33 5 58 14 65 7 6 51 18 97 26 139 25 206 51 315 123 327 218
379 694 107 978 -112 116 -221 176 -388 210 -88 18 -326 19 -343 2z m444 -256
c96 -49 164 -118 214 -220 32 -63 34 -73 33 -172 0 -118 -15 -170 -78 -263
-59 -85 -159 -149 -289 -184 -61 -16 -70 -16 -94 -2 l-27 15 -3 423 c-2 324 1
427 10 439 10 11 29 13 83 10 57 -4 86 -13 151 -46z"/>
<path d="M14767 4042 c-16 -17 -17 -82 -17 -734 0 -648 2 -717 16 -729 26 -21
149 -25 179 -5 22 14 25 23 23 65 -3 59 11 78 61 86 20 3 63 11 97 17 87 16
111 7 124 -45 20 -77 37 -112 61 -124 14 -7 63 -13 115 -13 132 0 136 10 62
162 -30 62 -58 133 -58 148 0 4 29 40 66 81 78 87 131 178 156 268 26 93 25
287 -1 362 -47 133 -93 206 -185 292 -60 57 -111 89 -209 129 -115 48 -169 57
-328 58 -129 0 -148 -2 -162 -18z m437 -246 c92 -46 156 -102 195 -171 110
-195 68 -436 -99 -572 -95 -77 -265 -133 -310 -104 -13 9 -16 71 -20 423 -3
227 -2 423 2 436 4 12 17 26 29 30 37 14 130 -5 203 -42z"/>
<path d="M11625 2068 c-3 -7 -4 -209 -3 -448 l3 -435 25 0 25 0 0 445 0 445
-23 3 c-12 2 -24 -3 -27 -10z"/>
<path d="M9850 2043 c-98 -19 -170 -60 -222 -125 -50 -62 -65 -94 -83 -175
-52 -242 30 -462 201 -544 43 -21 63 -24 169 -23 110 0 124 2 170 26 73 39
123 93 164 178 35 73 36 78 39 219 4 152 7 138 -52 260 -38 78 -111 139 -206
170 -41 14 -144 22 -180 14z m183 -75 c55 -17 131 -93 162 -165 25 -56 26 -64
23 -208 -5 -176 -18 -217 -96 -293 -134 -129 -384 -96 -470 63 -40 74 -51 129
-52 247 0 116 2 126 43 216 20 43 78 102 125 126 39 20 62 25 136 25 49 1 107
-4 129 -11z"/>
<path d="M5964 2023 c-12 -27 -13 -816 -1 -830 7 -10 65 -13 228 -13 230 0
255 5 208 42 -21 18 -38 19 -190 17 -128 -2 -171 0 -183 10 -14 12 -16 55 -16
377 0 254 -3 371 -12 389 -13 29 -23 32 -34 8z"/>
<path d="M7694 2015 c-17 -26 -12 -60 11 -69 26 -10 45 5 45 34 0 62 -27 79
-56 35z"/>
<path d="M12106 2024 c-10 -25 -7 -59 6 -72 17 -17 26 -15 44 13 15 23 15 27
0 50 -19 28 -41 33 -50 9z"/>
<path d="M6928 1811 c-15 -5 -42 -18 -60 -30 -143 -89 -172 -370 -53 -519 48
-61 94 -83 188 -89 129 -9 215 38 265 146 23 51 26 67 26 181 0 112 -3 130
-24 170 -56 106 -111 141 -234 146 -45 2 -93 0 -108 -5z m175 -55 c80 -37 123
-110 133 -227 15 -183 -72 -309 -215 -309 -145 0 -232 121 -217 307 8 113 40
174 114 220 44 27 135 31 185 9z"/>
<path d="M8291 1810 c-45 -10 -95 -46 -85 -61 8 -14 48 -11 87 6 42 17 145 20
179 4 36 -16 70 -74 76 -128 7 -73 -6 -88 -70 -86 -111 3 -241 -30 -292 -74
-85 -75 -67 -225 34 -279 83 -44 247 -18 296 47 10 13 14 13 28 2 9 -7 16 -21
16 -31 0 -17 33 -34 44 -22 3 3 6 111 6 240 0 283 -8 318 -79 360 -35 20 -59
26 -120 28 -42 2 -96 -1 -120 -6z m253 -392 c-1 -82 -29 -132 -97 -172 -79
-46 -204 -28 -237 34 -18 35 -11 113 13 141 45 54 94 68 222 66 l100 -2 -1
-67z"/>
<path d="M10881 1810 c-24 -5 -51 -16 -60 -23 -9 -8 -26 -20 -39 -26 -21 -11
-24 -9 -33 18 -11 33 -30 40 -47 19 -13 -16 -5 -599 8 -612 5 -5 15 -6 23 -3
13 5 16 42 19 219 3 193 5 217 25 260 33 71 86 102 184 107 l78 3 48 -45 47
-45 6 -249 5 -248 25 0 25 0 3 225 c3 211 2 229 -19 291 -19 56 -27 68 -63 88
-47 27 -160 37 -235 21z"/>
<path d="M12779 1811 c-19 -4 -46 -15 -59 -24 -33 -23 -67 -21 -82 3 -17 27
-36 25 -43 -2 -3 -13 -4 -153 -3 -313 l3 -290 25 0 25 0 5 220 c5 202 7 224
27 266 13 25 38 56 55 70 29 21 43 24 125 24 90 0 93 -1 124 -31 43 -43 48
-80 49 -331 0 -206 1 -212 21 -218 12 -4 25 -3 31 3 6 6 8 105 6 253 -3 230
-4 246 -25 285 -33 63 -80 87 -172 90 -42 2 -92 -1 -112 -5z"/>
<path d="M13675 1810 c-118 -29 -195 -151 -195 -308 0 -153 50 -255 147 -304
42 -20 62 -23 161 -22 96 0 116 3 139 20 43 33 42 48 -3 39 -22 -4 -76 -9
-122 -12 -70 -4 -89 -1 -125 16 -74 36 -114 92 -131 184 -12 66 -10 67 229 67
244 0 230 -6 220 96 -16 142 -109 235 -234 233 -31 -1 -69 -4 -86 -9z m176
-65 c53 -48 89 -137 74 -184 -6 -20 -13 -21 -179 -21 -208 0 -209 1 -180 86
19 56 68 118 108 135 38 16 152 6 177 -16z"/>
<path d="M7702 1798 c-9 -9 -12 -109 -12 -389 0 -242 -4 -387 -11 -407 -14
-40 -49 -62 -98 -62 -46 0 -62 -17 -35 -37 30 -23 113 -12 156 20 47 36 48 47
48 498 0 355 -3 389 -30 389 -3 0 -11 -5 -18 -12z"/>
<path d="M12112 1798 c-14 -14 -17 -584 -3 -606 5 -8 17 -12 27 -10 18 3 19
19 22 302 2 212 -1 303 -9 312 -14 17 -22 17 -37 2z"/>
</g>
</svg>
